PathFileType	4	(X/Y/Z)	C:\Users\WrightLab\Desktop\Jo\P1.2Trial19.trc
DataRate	CameraRate	NumFrames	NumMarkers	Units	OrigDataRate	OrigDataStartFrame	OrigNumFrames
100.00	100.00	       9	19	mm	100.00	158	       629
Frame#	Time	Headset_Front			Headset_Back			Headset_Left			Headset_Right			Left_Shoulder			Right_Shoulder			Sternum			C7			Left Elbow			Right Elbow			Left Wrist			Right Wrist			Left ASIS			Right ASIS			S2			Left Knee			Right Knee			Left Ankle			Right Ankle			
		X1	Y1	Z1	X2	Y2	Z2	X3	Y3	Z3	X4	Y4	Z4	X5	Y5	Z5	X6	Y6	Z6	X7	Y7	Z7	X8	Y8	Z8	X9	Y9	Z9	X10	Y10	Z10	X11	Y11	Z11	X12	Y12	Z12	X13	Y13	Z13	X14	Y14	Z14	X15	Y15	Z15	X16	Y16	Z16	X17	Y17	Z17	X18	Y18	Z18	X19	Y19	Z19	

158	1.570	-698.63135	1360.00085	-242.74994	-739.01892	1508.06189	-504.18402	-613.03387	1432.46631	-417.72235	-818.67847	1411.67896	-317.29178	-522.14795	1236.40820	-508.42844	-942.02368	1229.32507	-418.75189	-707.15887	1165.32422	-349.62357	-755.92224	1297.46497	-571.76141	-463.62750	952.41718	-577.33929	-1032.54626	983.53180	-446.11002	-405.02301	739.62549	-477.31961	-1082.70081	734.21552	-357.72641	-587.94373	853.88501	-391.58441	-857.14740	842.11871	-369.82797	-729.35101	896.82050	-662.14325	-588.37433	484.72821	-267.72641	-895.16888	415.71631	-411.11032	-597.75745	183.67697	-504.07104	-897.39063	70.44945	-458.69662	
159	1.580	-698.36267	1358.31555	-235.28139	-740.74390	1508.45105	-494.33139	-613.97552	1432.16187	-409.06293	-818.50684	1411.36084	-307.02310	-523.95435	1237.03027	-502.15533	-942.32532	1229.85986	-408.52563	-707.73053	1166.18140	-341.68170	-758.88177	1298.16650	-562.94385	-467.04233	953.61212	-572.48328	-1036.22424	984.65186	-433.57440	-404.42429	741.57800	-472.46191	-1085.57568	736.05200	-341.75943	-588.06860	854.41241	-384.40915	-858.13647	842.81769	-364.17822	-730.55255	897.70319	-655.18695	-588.37903	490.02515	-257.98358	-895.92743	415.46979	-408.69809	-603.00012	177.59560	-482.05475	-897.14935	69.46518	-459.80634	
160	1.590	-696.19385	1359.18567	-218.99756	-742.26447	1509.23950	-485.47769	-614.92560	1432.67126	-401.01590	-819.25085	1411.64856	-298.03006	-526.43188	1237.64429	-496.25256	-943.62451	1229.28589	-396.57187	-709.41742	1165.49463	-337.44644	-761.62744	1298.75024	-553.83551	-470.53848	954.54803	-568.61017	-1038.45337	985.69507	-421.18723	-406.73987	741.11011	-468.12408	-1087.95020	738.61896	-326.37674	-588.21930	855.13330	-377.98553	-859.39270	842.99323	-357.23294	-732.50146	898.73163	-648.84943	-589.47260	493.41306	-249.59621	-895.16815	414.43347	-404.99124	-607.33789	171.71414	-459.23737	-897.14935	69.46518	-459.80634	
161	1.600	-696.22931	1359.28638	-209.49513	-743.66687	1509.42249	-475.93228	-615.63556	1432.03723	-392.64304	-818.84332	1410.68787	-288.59003	-528.26917	1238.16455	-490.07071	-944.01715	1231.19299	-386.06210	-708.74158	1165.31604	-328.19601	-764.04144	1299.36145	-545.65143	-473.37613	955.69324	-565.17914	-1040.18896	986.39380	-408.16589	-407.16580	742.15802	-463.30917	-1089.76904	739.32330	-310.62668	-587.99286	856.21838	-372.44708	-859.92786	843.28162	-350.21841	-734.01520	900.03278	-642.17877	-589.24854	497.06430	-242.47490	-895.16400	413.64853	-401.34512	-611.08264	163.77829	-435.52765	-896.89502	68.61069	-460.50180	
162	1.610	-694.89136	1357.51257	-201.54726	-744.86426	1509.64075	-466.85641	-616.46295	1432.12134	-386.35861	-818.52045	1410.39551	-279.53717	-529.58075	1237.99866	-483.75659	-943.28937	1230.54382	-374.96036	-709.93665	1164.71826	-319.20151	-766.41425	1299.46289	-536.27026	-476.51968	955.94000	-560.53271	-1041.53699	987.03680	-396.72903	-410.19833	742.34363	-458.82944	-1090.99561	741.24792	-295.60449	-588.72919	856.55688	-366.08527	-861.07391	842.75287	-344.68243	-735.46558	900.61108	-634.83722	-591.47675	499.11081	-234.84468	-894.72577	413.08887	-397.40829	-613.68481	156.83879	-411.25934	-896.51648	69.11238	-459.29736	
163	1.620	-694.62915	1357.40759	-194.15286	-745.55438	1509.35767	-457.42221	-616.57977	1431.89661	-377.85593	-818.56134	1409.86951	-269.45490	-531.52246	1237.62842	-477.20273	-945.66132	1231.99329	-364.79376	-709.70581	1164.88184	-310.86850	-768.23737	1299.82495	-527.52637	-479.62207	956.33032	-555.20319	-1042.07153	987.16132	-383.02579	-410.73343	742.53870	-454.55652	-1092.15051	741.98120	-281.11255	-588.61328	856.43262	-360.74307	-861.26593	843.41388	-335.24158	-736.77441	901.80878	-627.47742	-591.46997	501.23102	-227.97528	-894.06116	411.95581	-392.71472	-615.83508	150.94162	-388.46036	-895.96552	69.81034	-457.53183	
164	1.630	-693.55310	1355.53418	-185.85825	-746.30804	1509.02783	-447.70386	-617.56793	1430.78418	-369.01575	-817.55609	1408.84521	-259.55276	-533.02258	1237.62927	-470.25763	-942.69873	1229.70032	-353.36316	-710.32794	1163.72595	-303.24542	-770.18250	1299.90344	-518.94000	-481.99628	955.70587	-550.52612	-1044.44885	987.44763	-371.36169	-412.10181	742.05518	-450.09457	-1092.75305	742.94336	-266.16299	-588.87103	856.66351	-353.49606	-861.94861	843.09167	-329.32642	-738.24579	902.27966	-620.22980	-592.68750	502.81256	-221.68582	-894.48572	412.93509	-388.70871	-616.99908	144.34592	-363.32266	-894.54059	68.98732	-458.45853	
165	1.640	-692.34338	1354.87793	-178.94987	-747.28394	1509.03345	-438.65125	-617.68396	1430.54639	-361.52420	-816.92560	1408.83923	-250.76021	-534.30798	1237.49988	-464.49966	-946.12231	1232.41687	-345.19598	-710.04681	1163.82214	-296.41141	-771.47552	1299.41248	-510.40073	-485.17453	955.29883	-544.21210	-1045.56067	987.81696	-359.75824	-413.81009	741.83136	-446.03622	-1093.23535	743.25488	-251.95348	-589.26904	856.83282	-346.98090	-861.64191	843.16626	-318.99466	-739.19904	903.07086	-613.17749	-593.52722	503.17548	-214.98222	-895.17651	412.96262	-384.19955	-616.84827	138.63953	-338.48108	-893.37579	67.92376	-457.08905	
166	1.650	-691.40869	1353.00330	-170.41948	-747.66284	1508.63611	-429.42532	-617.63348	1430.06458	-354.12634	-816.82727	1408.05493	-241.43695	-535.22852	1236.85303	-457.62308	-944.14941	1230.82715	-334.08444	-709.44263	1163.32312	-288.35776	-773.19257	1299.72217	-502.97290	-487.07837	954.62842	-538.82776	-1046.36206	987.60449	-346.99689	-415.25616	741.15759	-441.58347	-1093.98560	744.35828	-238.70119	-590.16486	855.51111	-339.92474	-862.35388	842.59125	-311.47177	-740.81964	903.15546	-604.30145	-594.94147	502.92123	-208.74399	-894.62012	411.67947	-379.07092	-616.25580	133.87726	-313.27200	-892.66760	68.34170	-453.83035	
